<?xml version="1.0" encoding="utf-8"?>
<svg xmlns="http://www.w3.org/2000/svg" width="24" height="24" viewBox="0 0 24 24" fill="none">
<path d="M11.3555 14.1777L14.5028 11.0303L13.4421 9.96968L11.3395 12.0724L10.4597 11.219L9.41528 12.2956L11.3555 14.1777Z" fill="#502D3C"/>
<path fill-rule="evenodd" clip-rule="evenodd" d="M13.875 3.375C13.875 4.14387 13.4122 4.80465 12.75 5.09398V6.80317C13.6394 6.93039 14.457 7.28055 15.1441 7.79522L16.353 6.58641C16.0893 5.91356 16.2293 5.11907 16.773 4.5754C17.5052 3.84316 18.6924 3.84316 19.4246 4.5754C20.1568 5.30763 20.1568 6.49482 19.4246 7.22705C18.8809 7.77072 18.0865 7.91072 17.4136 7.64706L16.2048 8.85588C16.7195 9.54306 17.0696 10.3606 17.1968 11.25L18.906 11.25C19.1954 10.5878 19.8561 10.125 20.625 10.125C21.6605 10.125 22.5 10.9645 22.5 12C22.5 13.0355 21.6605 13.875 20.625 13.875C19.8561 13.875 19.1954 13.4122 18.906 12.75L17.1968 12.75C17.0696 13.6394 16.7195 14.457 16.2048 15.1441L17.4136 16.353C18.0864 16.0893 18.8809 16.2293 19.4246 16.773C20.1568 17.5052 20.1568 18.6924 19.4246 19.4246C18.6924 20.1568 17.5052 20.1568 16.773 19.4246C16.2293 18.8809 16.0893 18.0865 16.3529 17.4136L15.1441 16.2048C14.4569 16.7195 13.6394 17.0696 12.75 17.1968L12.75 18.906C13.4122 19.1954 13.875 19.8561 13.875 20.625C13.875 21.6605 13.0355 22.5 12 22.5C10.9645 22.5 10.125 21.6605 10.125 20.625C10.125 19.8561 10.5878 19.1954 11.25 18.906L11.25 17.1968C10.3606 17.0696 9.54304 16.7194 8.85586 16.2048L7.64705 17.4136C7.91072 18.0864 7.77072 18.8809 7.22704 19.4246C6.49481 20.1568 5.30762 20.1568 4.57539 19.4246C3.84316 18.6924 3.84316 17.5052 4.57539 16.773C5.11906 16.2293 5.91354 16.0893 6.58638 16.3529L7.7952 15.1441C7.28054 14.4569 6.93039 13.6394 6.80317 12.75H5.09398C4.80465 13.4122 4.14387 13.875 3.375 13.875C2.33947 13.875 1.5 13.0355 1.5 12C1.5 10.9645 2.33947 10.125 3.375 10.125C4.14387 10.125 4.80465 10.5878 5.09398 11.25H6.80317C6.93039 10.3606 7.28055 9.54305 7.79522 8.85586L6.58641 7.64705C5.91356 7.91072 5.11907 7.77071 4.5754 7.22704C3.84316 6.49481 3.84316 5.30762 4.5754 4.57539C5.30763 3.84316 6.49482 3.84316 7.22705 4.57539C7.77072 5.11906 7.91072 5.91354 7.64706 6.58638L8.85588 7.7952C9.54307 7.28054 10.3606 6.93039 11.25 6.80317V5.09398C10.5878 4.80465 10.125 4.14387 10.125 3.375C10.125 2.33947 10.9645 1.5 12 1.5C13.0355 1.5 13.875 2.33947 13.875 3.375ZM8.25 12C8.25 9.92893 9.92893 8.25 12 8.25C14.0711 8.25 15.75 9.92893 15.75 12C15.75 14.0711 14.0711 15.75 12 15.75C9.92893 15.75 8.25 14.0711 8.25 12Z" fill="#502D3C"/>
</svg>