<?xml version="1.0" encoding="utf-8"?>
<svg xmlns="http://www.w3.org/2000/svg" width="48" height="48" viewBox="0 0 48 48" fill="none">
<g clip-path="url(#clip0_1326_47236)">
<path d="M40.5 0H7.5C3.35786 0 0 3.35786 0 7.5V40.5C0 44.6421 3.35786 48 7.5 48H40.5C44.6421 48 48 44.6421 48 40.5V7.5C48 3.35786 44.6421 0 40.5 0Z" fill="#502D3C"/>
<path d="M25.5343 18.7587C26.8755 15.5208 25.3378 11.8086 22.0999 10.4674C18.8619 9.12616 15.1497 10.6638 13.8085 13.9018C12.4673 17.1397 14.0049 20.8519 17.2429 22.1931C20.4809 23.5343 24.193 21.9967 25.5343 18.7587Z" fill="#FDB71C"/>
<path d="M31.3388 36.2424C31.3388 29.8093 26.1047 24.5752 19.6716 24.5752C13.2385 24.5752 8.00439 29.8093 8.00439 36.2424H11.8041H27.8166H31.3388Z" fill="#FDB71C"/>
<path d="M28.2009 24.8174V39.3964H39.9956V29.7318L35.0822 24.8174H28.2009Z" fill="white"/>
<path d="M39.9956 29.7318L35.0822 24.8174V29.7318H39.9956Z" fill="#FDB71C"/>
<path d="M37.5881 35.6025H30.7444V37.4775H37.5881V35.6025Z" fill="#502D3C"/>
<path d="M37.5881 31.8672H30.7444V33.7422H37.5881V31.8672Z" fill="#502D3C"/>
</g>
<defs>
<clipPath id="clip0_1326_47236">
<rect width="48" height="48" fill="white"/>
</clipPath>
</defs>
</svg>