<?xml version="1.0" encoding="utf-8"?>
<svg xmlns="http://www.w3.org/2000/svg" width="24" height="24" viewBox="0 0 24 24" fill="none">
<path d="M9 10.125C9 8.80257 9.97789 7.70854 11.25 7.52658V6H12.75V7.5H14.25V9H11.625C11.0037 9 10.5 9.50368 10.5 10.125C10.5 10.7463 11.0037 11.25 11.625 11.25H12.375C13.8247 11.25 15 12.4253 15 13.875C15 15.1974 14.0221 16.2915 12.75 16.4734V18H11.25V16.5H9.75V15H12.375C12.9963 15 13.5 14.4963 13.5 13.875C13.5 13.2537 12.9963 12.75 12.375 12.75H11.625C10.1753 12.75 9 11.5747 9 10.125Z" fill="#502D3C"/>
<path fill-rule="evenodd" clip-rule="evenodd" d="M12 22.5C17.799 22.5 22.5 17.799 22.5 12C22.5 6.20101 17.799 1.5 12 1.5C6.20101 1.5 1.5 6.20101 1.5 12C1.5 17.799 6.20101 22.5 12 22.5ZM12 21C16.9706 21 21 16.9706 21 12C21 7.02944 16.9706 3 12 3C7.02944 3 3 7.02944 3 12C3 16.9706 7.02944 21 12 21Z" fill="#502D3C"/>
</svg>