<?xml version="1.0" encoding="utf-8"?>
<svg xmlns="http://www.w3.org/2000/svg" width="24" height="24" viewBox="0 0 24 24" fill="none">
<path d="M6.75 8.25V9.75H8.25V8.25H9.75V6.75H8.25V5.25H6.75V6.75H5.25V8.25H6.75Z" fill="#402530"/>
<path d="M5.46971 17.6517L6.53036 16.591L5.46968 15.5303L6.53034 14.4697L7.59103 15.5303L8.65169 14.4697L9.71235 15.5303L8.65169 16.591L9.71232 17.6516L8.65166 18.7123L7.59102 17.6517L6.53037 18.7123L5.46971 17.6517Z" fill="#402530"/>
<path d="M18.75 15.75H14.25V14.25H18.75V15.75Z" fill="#402530"/>
<path d="M14.25 18.75H18.75V17.25H14.25V18.75Z" fill="#402530"/>
<path d="M14.25 8.25L18.75 8.25V6.75L14.25 6.75V8.25Z" fill="#402530"/>
<path fill-rule="evenodd" clip-rule="evenodd" d="M21.75 2.25H2.25V21.75H21.75V2.25ZM3.75 11.25V3.75H11.25V11.25H3.75ZM3.75 12.75V20.25H11.25V12.75H3.75ZM12.75 12.75V20.25H20.25V12.75H12.75ZM20.25 11.25V3.75H12.75V11.25H20.25Z" fill="#402530"/>
</svg>