<?xml version="1.0" encoding="utf-8"?>
<svg xmlns="http://www.w3.org/2000/svg" width="48" height="48" viewBox="0 0 48 48" fill="none">
<g clip-path="url(#clip0_1326_47181)">
<path d="M7.5 48L40.5 48C44.6421 48 48 44.6421 48 40.5L48 7.5C48 3.35786 44.6421 0 40.5 0L7.5 0C3.35786 0 0 3.35786 0 7.5L0 40.5C0 44.6421 3.35786 48 7.5 48Z" fill="#502D3C"/>
<path d="M24 7.11523C14.6897 7.11523 7.1156 14.6893 7.1156 23.9996C7.1156 33.3099 14.6897 40.884 24 40.884C33.3103 40.884 40.8844 33.3099 40.8844 23.9996C40.8844 14.6893 33.3103 7.11523 24 7.11523ZM27.4697 38.6031C27.9722 37.8521 28.4653 36.8706 28.9237 35.5918C29.4347 34.1659 29.8406 32.528 30.1303 30.7515H28.23C27.9637 32.2946 27.6037 33.7159 27.1584 34.959C26.2631 37.4565 25.0528 39.0081 23.999 39.0081C22.9453 39.0081 21.735 37.4565 20.8397 34.959C20.3944 33.7168 20.0344 32.2955 19.7681 30.7515H17.8678C18.1575 32.5271 18.5634 34.1649 19.0744 35.5918C19.5328 36.8706 20.0259 37.8512 20.5284 38.6031C13.92 37.0327 8.98966 31.0815 8.98966 23.9996C8.98966 16.9177 13.92 10.9665 20.5284 9.39617C20.0259 10.1471 19.5328 11.1287 19.0744 12.4074C18.5634 13.8334 18.1575 15.4712 17.8678 17.2477H19.7681C20.0344 15.7046 20.3944 14.2834 20.8397 13.0402C21.735 10.5427 22.9453 8.99117 23.999 8.99117C25.0528 8.99117 26.2631 10.5427 27.1584 13.0402C27.6037 14.2824 27.9637 15.7037 28.23 17.2477H30.1303C29.8406 15.4721 29.4347 13.8343 28.9237 12.4074C28.4653 11.1287 27.9722 10.148 27.4697 9.39617C34.0781 10.9665 39.0084 16.9177 39.0084 23.9996C39.0084 31.0815 34.0781 37.0327 27.4697 38.6031Z" fill="white"/>
<path d="M13.815 24.6296H17.6344V23.0021H13.815V21.1909H17.8969V19.4846H11.7806V28.5146H18.0937V26.8084H13.815V24.6296ZM23.4225 19.3271C20.7319 19.3271 18.9337 21.2565 18.9337 23.9996C18.9337 26.7427 20.7319 28.6721 23.4225 28.6721C26.1131 28.6721 27.9244 26.7296 27.9244 23.9996C27.9244 21.2696 26.1131 19.3271 23.4225 19.3271ZM23.4225 27.0184C21.9131 27.0184 21.0469 25.7846 21.0469 23.9996C21.0469 22.2146 21.9131 20.9809 23.4225 20.9809C24.9319 20.9809 25.8112 22.2146 25.8112 23.9996C25.8112 25.7846 24.945 27.0184 23.4225 27.0184ZM34.3819 24.8659C35.4056 24.5246 36.2719 23.7371 36.2719 22.254C36.2719 20.6134 35.1169 19.4846 33.1481 19.4846H29.2762V28.5146H31.3106V25.0759H32.2556L34.5 28.5146H36.8625L34.3819 24.8659ZM33.0431 23.3959H31.3106V21.1646H33.0431C33.8437 21.1646 34.2637 21.6109 34.2637 22.2802C34.2637 22.9496 33.8306 23.3959 33.0431 23.3959Z" fill="#FDB71C"/>
</g>
<defs>
<clipPath id="clip0_1326_47181">
<rect width="48" height="48" fill="white"/>
</clipPath>
</defs>
</svg>