<?xml version="1.0" encoding="utf-8"?>
<svg xmlns="http://www.w3.org/2000/svg" width="48" height="48" viewBox="0 0 48 48" fill="none">
<g clip-path="url(#clip0_4204_150)">
<path d="M40.5 0H7.5C3.35786 0 0 3.35786 0 7.5V40.5C0 44.6421 3.35786 48 7.5 48H40.5C44.6421 48 48 44.6421 48 40.5V7.5C48 3.35786 44.6421 0 40.5 0Z" fill="#502D3C"/>
<path d="M28.8009 17.2199C30.9187 17.2202 32.9964 17.7969 34.8112 18.8882C36.6261 19.9795 38.1096 21.5443 39.1028 23.4147C40.0959 25.2852 40.5611 27.3906 40.4485 29.5054C40.3359 31.6201 39.6498 33.6643 38.4638 35.4187L40.4025 40.4812L35.34 38.5424C33.829 39.5644 32.0994 40.2178 30.29 40.45C28.4807 40.6823 26.6421 40.4869 24.922 39.8796C23.2019 39.2724 21.6481 38.2701 20.3856 36.9534C19.1231 35.6367 18.187 34.0423 17.6526 32.2982C17.1181 30.5541 17.0001 28.7089 17.3082 26.9109C17.6162 25.1129 18.3416 23.4123 19.4262 21.9455C20.5107 20.4788 21.9242 19.2869 23.553 18.4655C25.1818 17.6441 26.9805 17.2162 28.8047 17.2162L28.8009 17.2199Z" fill="#FDB71C"/>
<path d="M19.2563 7.48592C17.138 7.48565 15.0597 8.06219 13.2444 9.15366C11.429 10.2451 9.94511 11.8103 8.95195 13.6813C7.95879 15.5523 7.49386 17.6583 7.60704 19.7735C7.72022 21.8887 8.40724 23.9332 9.59437 25.6875L7.65563 30.75L12.7181 28.8103C14.2291 29.8326 15.9589 30.4862 17.7683 30.7187C19.5778 30.9511 21.4166 30.7559 23.1369 30.1487C24.8572 29.5414 26.4111 28.5392 27.6738 27.2224C28.9364 25.9056 29.8726 24.311 30.407 22.5667C30.9415 20.8224 31.0594 18.977 30.7512 17.1789C30.443 15.3808 29.7174 13.68 28.6325 12.2133C27.5477 10.7465 26.134 9.55465 24.5049 8.73347C22.8758 7.91229 21.0768 7.48468 19.2525 7.48499L19.2563 7.48592Z" fill="white"/>
</g>
<defs>
<clipPath id="clip0_4204_150">
<rect width="48" height="48" fill="white"/>
</clipPath>
</defs>
</svg>