<?xml version="1.0" encoding="utf-8"?>
<svg xmlns="http://www.w3.org/2000/svg" width="48" height="48" viewBox="0 0 48 48" fill="none">
<g clip-path="url(#clip0_9584_499)">
<path d="M40.5 0H7.5C3.35786 0 0 3.35786 0 7.5V40.5C0 44.6421 3.35786 48 7.5 48H40.5C44.6421 48 48 44.6421 48 40.5V7.5C48 3.35786 44.6421 0 40.5 0Z" fill="#502D3C"/>
<path d="M15.8756 36.2681C15.627 36.2681 15.3885 36.1694 15.2127 35.9936C15.0369 35.8177 14.9381 35.5793 14.9381 35.3306C14.9381 35.082 15.0369 34.8435 15.2127 34.6677C15.3885 34.4919 15.627 34.3931 15.8756 34.3931H34.935L34.9397 9.86908H15.9375C15.1741 9.87007 14.4423 10.174 13.9028 10.7142C13.3633 11.2544 13.0603 11.9866 13.0603 12.75V35.2575C13.061 36.02 13.3645 36.751 13.9041 37.2898C14.4436 37.8287 15.175 38.1312 15.9375 38.131H34.9341V36.2681H15.8756Z" fill="#FDB71C"/>
<path d="M25.7828 21.4319C26.7673 20.4474 26.7673 18.8513 25.7828 17.8668C24.7983 16.8823 23.2021 16.8823 22.2176 17.8668C21.2331 18.8513 21.2331 20.4474 22.2176 21.4319C23.2021 22.4164 24.7983 22.4164 25.7828 21.4319Z" fill="white"/>
<path d="M26.7591 28.1016H28.6341C28.6341 26.8726 28.1459 25.6939 27.2768 24.8248C26.4078 23.9558 25.2291 23.4675 24 23.4675C22.771 23.4675 21.5923 23.9558 20.7233 24.8248C19.8542 25.6939 19.366 26.8726 19.366 28.1016H26.7591Z" fill="white"/>
</g>
<defs>
<clipPath id="clip0_9584_499">
<rect width="48" height="48" fill="white"/>
</clipPath>
</defs>
</svg>