<?xml version="1.0" encoding="utf-8"?>
<svg xmlns="http://www.w3.org/2000/svg" width="48" height="48" viewBox="0 0 48 48" fill="none">
<g clip-path="url(#clip0_1326_47271)">
<path d="M40.5 0H7.49997C3.35783 0 -3.05176e-05 3.35786 -3.05176e-05 7.5V40.5C-3.05176e-05 44.6421 3.35783 48 7.49997 48H40.5C44.6421 48 48 44.6421 48 40.5V7.5C48 3.35786 44.6421 0 40.5 0Z" fill="#502D3C"/>
<path d="M13.0228 39.5716C14.5222 39.5716 15.7378 38.3561 15.7378 36.8566C15.7378 35.3572 14.5222 34.1416 13.0228 34.1416C11.5233 34.1416 10.3078 35.3572 10.3078 36.8566C10.3078 38.3561 11.5233 39.5716 13.0228 39.5716Z" fill="#FDB71C"/>
<path d="M34.9772 39.5716C36.4766 39.5716 37.6922 38.3561 37.6922 36.8566C37.6922 35.3572 36.4766 34.1416 34.9772 34.1416C33.4777 34.1416 32.2622 35.3572 32.2622 36.8566C32.2622 38.3561 33.4777 39.5716 34.9772 39.5716Z" fill="#FDB71C"/>
<path d="M24 39.5716C25.4994 39.5716 26.715 38.3561 26.715 36.8566C26.715 35.3572 25.4994 34.1416 24 34.1416C22.5005 34.1416 21.285 35.3572 21.285 36.8566C21.285 38.3561 22.5005 39.5716 24 39.5716Z" fill="#FDB71C"/>
<path d="M35.039 25.2714H24.9375V20.4639H23.0625V25.2714H12.9656C12.717 25.2714 12.4785 25.3701 12.3027 25.546C12.1269 25.7218 12.0281 25.9602 12.0281 26.2089V31.9548H13.9031V27.1464H23.0625V31.9548H24.9375V27.1464H34.0997V31.9548H35.9747V26.2089C35.9747 25.9606 35.8761 25.7224 35.7007 25.5466C35.5253 25.3709 35.2874 25.2719 35.039 25.2714Z" fill="white"/>
<path d="M24.9668 12.1533C26.2531 11.6205 26.864 10.1459 26.3312 8.85956C25.7984 7.57327 24.3237 6.96244 23.0374 7.49524C21.7511 8.02804 21.1403 9.50271 21.6731 10.789C22.2059 12.0753 23.6806 12.6861 24.9668 12.1533Z" fill="#FDB71C"/>
<path d="M28.6359 18.2757C28.6359 17.0466 28.1477 15.8679 27.2786 14.9989C26.4096 14.1298 25.2309 13.6416 24.0018 13.6416C22.7728 13.6416 21.5941 14.1298 20.7251 14.9989C19.856 15.8679 19.3678 17.0466 19.3678 18.2757H28.6359Z" fill="#FDB71C"/>
</g>
<defs>
<clipPath id="clip0_1326_47271">
<rect width="48" height="48" fill="white"/>
</clipPath>
</defs>
</svg>