<?xml version="1.0" encoding="utf-8"?>
<svg xmlns="http://www.w3.org/2000/svg" width="24" height="24" viewBox="0 0 24 24" fill="none">
<path d="M15 9H9V15H15V9Z" fill="#502D3C"/>
<path fill-rule="evenodd" clip-rule="evenodd" d="M17.25 4.59451V1.5H15.75V4.5H12.75V1.5H11.25V4.5H8.25V1.5H6.75V4.59451C5.69579 4.86585 4.86585 5.6958 4.59451 6.75H1.5V8.25H4.5V11.25H1.5V12.75H4.5V15.75H1.5V17.25H4.59451C4.86585 18.3042 5.69579 19.1342 6.75 19.4055V22.5H8.25V19.5H11.25V22.5H12.75V19.5H15.75V22.5H17.25V19.4055C18.3042 19.1342 19.1342 18.3042 19.4055 17.25H22.5V15.75H19.5V12.75H22.5V11.25H19.5V8.25H22.5V6.75H19.4055C19.1342 5.69579 18.3042 4.86585 17.25 4.59451ZM6 7.5C6 6.67157 6.67157 6 7.5 6H16.5C17.3284 6 18 6.67157 18 7.5V16.5C18 17.3284 17.3284 18 16.5 18H7.5C6.67157 18 6 17.3284 6 16.5V7.5Z" fill="#502D3C"/>
</svg>