<?xml version="1.0" encoding="utf-8"?>
<svg xmlns="http://www.w3.org/2000/svg" width="48" height="48" viewBox="0 0 48 48" fill="none">
<g clip-path="url(#clip0_1326_47399)">
<path d="M40.5 0H7.5C3.35786 0 0 3.35786 0 7.5V40.5C0 44.6421 3.35786 48 7.5 48H40.5C44.6421 48 48 44.6421 48 40.5V7.5C48 3.35786 44.6421 0 40.5 0Z" fill="#502D3C"/>
<path d="M24 29.1563C24.4986 29.1563 24.986 29.0084 25.4006 28.7314C25.8151 28.4544 26.1382 28.0607 26.329 27.6001C26.5198 27.1394 26.5698 26.6326 26.4725 26.1435C26.3752 25.6545 26.1351 25.2053 25.7826 24.8528C25.43 24.5002 24.9808 24.2601 24.4918 24.1629C24.0028 24.0656 23.4959 24.1155 23.0353 24.3063C22.5746 24.4971 22.1809 24.8202 21.9039 25.2348C21.6269 25.6494 21.4791 26.1368 21.4791 26.6354C21.4791 27.3039 21.7447 27.9452 22.2174 28.4179C22.6902 28.8907 23.3314 29.1563 24 29.1563ZM36.1472 29.1563C36.6458 29.1565 37.1333 29.0088 37.548 28.7319C37.9627 28.455 38.286 28.0613 38.4769 27.6007C38.6678 27.1401 38.7179 26.6332 38.6207 26.1441C38.5236 25.655 38.2836 25.2058 37.931 24.8531C37.5785 24.5005 37.1293 24.2603 36.6403 24.1629C36.1512 24.0656 35.6443 24.1154 35.1836 24.3062C34.7229 24.497 34.3292 24.8201 34.0521 25.2347C33.7751 25.6493 33.6272 26.1367 33.6272 26.6354C33.6272 27.3038 33.8927 27.9449 34.3652 28.4176C34.8378 28.8903 35.4788 29.156 36.1472 29.1563ZM24 17.0194C24.4986 17.0194 24.9861 16.8715 25.4007 16.5945C25.8152 16.3174 26.1384 15.9237 26.3291 15.463C26.5199 15.0023 26.5698 14.4954 26.4724 14.0063C26.3751 13.5173 26.1349 13.0681 25.7822 12.7156C25.4296 12.3631 24.9803 12.123 24.4912 12.0259C24.0022 11.9287 23.4953 11.9788 23.0346 12.1697C22.574 12.3607 22.1804 12.6839 21.9035 13.0986C21.6266 13.5133 21.4789 14.0008 21.4791 14.4994C21.4793 15.1678 21.745 15.8088 22.2178 16.2814C22.6905 16.7539 23.3316 17.0194 24 17.0194ZM11.8528 29.1563C12.3514 29.1563 12.8388 29.0084 13.2534 28.7314C13.6679 28.4544 13.9911 28.0607 14.1819 27.6001C14.3727 27.1394 14.4226 26.6326 14.3253 26.1435C14.228 25.6545 13.9879 25.2053 13.6354 24.8528C13.2828 24.5002 12.8336 24.2601 12.3446 24.1629C11.8556 24.0656 11.3487 24.1155 10.8881 24.3063C10.4275 24.4971 10.0337 24.8202 9.75673 25.2348C9.47973 25.6494 9.33188 26.1368 9.33188 26.6354C9.33175 26.9664 9.39687 27.2943 9.52352 27.6002C9.65016 27.9061 9.83585 28.1841 10.07 28.4182C10.3041 28.6523 10.582 28.838 10.8879 28.9646C11.1939 29.0913 11.5217 29.1564 11.8528 29.1563ZM24 30.45C22.7714 30.4515 21.5936 30.9402 20.7249 31.809C19.8561 32.6777 19.3674 33.8555 19.3659 35.0841H28.6341C28.6326 33.8555 28.1439 32.6777 27.2751 31.809C26.4064 30.9402 25.2286 30.4515 24 30.45ZM11.8528 30.45C10.6242 30.4515 9.44641 30.9402 8.57768 31.809C7.70895 32.6777 7.22024 33.8555 7.21875 35.0841H16.4869C16.4854 33.8555 15.9967 32.6777 15.1279 31.809C14.2592 30.9402 13.0814 30.4515 11.8528 30.45ZM36.1472 30.45C34.9186 30.4515 33.7408 30.9402 32.8721 31.809C32.0033 32.6777 31.5146 33.8555 31.5131 35.0841H40.7812C40.7798 33.8555 40.2911 32.6777 39.4223 31.809C38.5536 30.9402 37.3758 30.4515 36.1472 30.45ZM32.5941 20.4779C32.5943 19.9792 32.4465 19.4917 32.1696 19.0769C31.8927 18.6622 31.499 18.339 31.0383 18.1481C30.5776 17.9571 30.0706 17.9071 29.5815 18.0044C29.0924 18.1016 28.6432 18.3417 28.2906 18.6943C27.9379 19.047 27.6978 19.4962 27.6006 19.9853C27.5033 20.4744 27.5533 20.9814 27.7443 21.4421C27.9352 21.9027 28.2584 22.2965 28.6732 22.5734C29.0879 22.8503 29.5754 22.998 30.0741 22.9979C30.7423 22.9976 31.3832 22.732 31.8557 22.2595C32.3282 21.7869 32.5938 21.1461 32.5941 20.4779ZM20.4469 20.4779C20.4471 19.9792 20.2994 19.4917 20.0225 19.077C19.7456 18.6624 19.3519 18.3391 18.8913 18.1481C18.4307 17.9572 17.9238 17.9071 17.4347 18.0043C16.9456 18.1015 16.4964 18.3415 16.1437 18.694C15.791 19.0465 15.5509 19.4957 15.4535 19.9848C15.3562 20.4738 15.406 20.9807 15.5968 21.4414C15.7876 21.9021 16.1107 22.2959 16.5253 22.5729C16.9399 22.85 17.4273 22.9979 17.9259 22.9979C18.5944 22.9979 19.2354 22.7324 19.7082 22.2598C20.1809 21.7873 20.4466 21.1463 20.4469 20.4779Z" fill="#FDB71C"/>
</g>
<defs>
<clipPath id="clip0_1326_47399">
<rect width="48" height="48" fill="white"/>
</clipPath>
</defs>
</svg>