<?xml version="1.0" encoding="utf-8"?>
<svg xmlns="http://www.w3.org/2000/svg" width="24" height="24" viewBox="0 0 24 24" fill="none">
<path fill-rule="evenodd" clip-rule="evenodd" d="M6.17996 8.03484L12 13.875L17.82 8.03484C19.3099 6.54081 19.3101 4.11557 17.82 2.62154C16.359 1.15524 14.0077 1.12672 12.5124 2.53596C12.4827 2.56392 12.4534 2.59245 12.4244 2.62154L12 3.04704L11.5756 2.62154C11.5466 2.59245 11.5173 2.56392 11.4876 2.53597C9.99225 1.12672 7.641 1.15524 6.17996 2.62154C4.68993 4.11557 4.6901 6.54081 6.17996 8.03484ZM7.2421 6.97566C6.33598 6.067 6.33598 4.58927 7.24204 3.68078C8.14591 2.77365 9.60953 2.77334 10.5129 3.68017L12 5.17109L13.4871 3.68017C14.3905 2.77334 15.8541 2.77365 16.758 3.68078C17.664 4.58927 17.6637 6.06735 16.7576 6.97601L12 11.75L7.2421 6.97566Z" fill="#502D3C"/>
<path d="M13.7563 15.0876H8.99022C8.41419 15.0876 7.86011 15.3085 7.4421 15.7049L3.75 19.2056L7.21176 22.5001L8.95855 20.8529L15.0419 20.8528C15.5139 20.8528 15.968 20.6717 16.3104 20.3468L20.089 16.7616C20.5844 16.2915 20.585 15.5023 20.0903 15.0315C19.6301 14.5936 18.9075 14.5929 18.4465 15.03L14.9116 18.382L11.3071 18.382C10.966 18.382 10.6894 18.1055 10.6894 17.7643C10.6894 17.4232 10.966 17.1466 11.3071 17.1466H13.7563C14.3249 17.1466 14.7858 16.6857 14.7858 16.1171C14.7858 15.5485 14.3249 15.0876 13.7563 15.0876Z" fill="#502D3C"/>
</svg>