<?xml version="1.0" encoding="utf-8"?>
<svg xmlns="http://www.w3.org/2000/svg" width="32" height="32" viewBox="0 0 32 32" fill="none">
<path d="M26 8C26 9.10457 25.1046 10 24 10C22.8954 10 22 9.10457 22 8C22 6.89543 22.8954 6 24 6C25.1046 6 26 6.89543 26 8Z" fill="black"/>
<path d="M20.0356 12.1213C18.864 10.9497 16.9645 10.9497 15.7929 12.1213L14.7433 13.1709L14.0362 12.4638L12.622 13.878L13.3291 14.5851L12.6109 15.3033C12.2204 15.6938 11.5873 15.6938 11.1967 15.3033L9.78252 16.7175L15.4394 22.3743L16.8536 20.9601L13.1973 17.3039C13.4967 17.1609 13.7772 16.9654 14.0252 16.7175L14.7433 15.9993L16.1575 17.4135L17.5717 15.9993L16.1575 14.5851L17.2072 13.5355C17.5977 13.145 18.2308 13.145 18.6214 13.5355C19.0119 13.926 19.0119 14.5592 18.6214 14.9497L20.0356 16.3639C21.2072 15.1923 21.2072 13.2928 20.0356 12.1213Z" fill="black"/>
<path fill-rule="evenodd" clip-rule="evenodd" d="M17.0474 2H30V14.9527L15 29.9527L2.04736 17L17.0474 2ZM17.8758 4L4.87579 17L15 27.1242L28 14.1242V4H17.8758Z" fill="black"/>
</svg>