<?xml version="1.0" encoding="utf-8"?>
<svg xmlns="http://www.w3.org/2000/svg" width="24" height="24" viewBox="0 0 24 24" fill="none">
<path fill-rule="evenodd" clip-rule="evenodd" d="M4.46087 2.00113C6.64707 0.86008 9.40868 1.20613 11.2461 3.04354C12.8027 4.60016 13.2888 6.82044 12.7078 8.79095L22.6543 18.7375L18.7365 22.6553L8.78998 12.7088C6.81946 13.2898 4.59918 12.8037 3.04256 11.2471C1.20516 9.40966 0.859104 6.64804 2.00015 4.46185L2.47291 3.55608L6.0729 7.15607L7.1551 6.07387L3.55511 2.47388L4.46087 2.00113ZM6.16043 2.95789L9.27642 6.07387L6.0729 9.2774L2.95691 6.16141C2.62921 7.56232 3.01199 9.09517 4.10322 10.1864C5.34944 11.4326 7.17155 11.7553 8.71637 11.1499L9.17332 10.9708L18.7365 20.534L20.533 18.7375L10.9698 9.1743L11.1489 8.71735C11.7543 7.17252 11.4316 5.35042 10.1854 4.1042C9.09419 3.01296 7.56134 2.63019 6.16043 2.95789Z" fill="black"/>
</svg>