<?xml version="1.0" encoding="utf-8"?>
<svg xmlns="http://www.w3.org/2000/svg" width="48" height="48" viewBox="0 0 48 48" fill="none">
<g clip-path="url(#clip0_1326_47539)">
<path d="M40.5 0H7.5C3.35786 0 0 3.35786 0 7.5V40.5C0 44.6421 3.35786 48 7.5 48H40.5C44.6421 48 48 44.6421 48 40.5V7.5C48 3.35786 44.6421 0 40.5 0Z" fill="#502D3C"/>
<path d="M24 38.4529C16.0312 38.4529 9.54749 31.9691 9.54749 24.0004C9.54749 16.0316 16.0312 9.54785 24 9.54785C31.9687 9.54785 38.4525 16.0316 38.4525 24.0004C38.4525 31.9691 31.9687 38.4529 24 38.4529ZM24 11.4229C17.0644 11.4229 11.4225 17.0647 11.4225 24.0004C11.4225 30.936 17.0644 36.5779 24 36.5779C30.9356 36.5779 36.5775 30.936 36.5775 24.0004C36.5775 17.0647 30.9356 11.4229 24 11.4229Z" fill="white"/>
<path d="M27.6825 18.1436C26.0737 18.1436 24.6825 19.0642 24 20.4067C23.3165 19.0651 21.9262 18.1436 20.3175 18.1436C18.0346 18.1436 16.184 19.9942 16.184 22.277C16.184 24.5598 18.8418 28.2329 24 31.7307C29.1581 28.2329 31.8159 24.5495 31.8159 22.277C31.8159 20.0045 29.9653 18.1436 27.6825 18.1436Z" fill="#FDB71C"/>
<path d="M35.954 43.4005C40.1018 43.4005 43.4643 40.038 43.4643 35.8902C43.4643 31.7424 40.1018 28.3799 35.954 28.3799C31.8061 28.3799 28.4437 31.7424 28.4437 35.8902C28.4437 40.038 31.8061 43.4005 35.954 43.4005Z" fill="#FDB71C"/>
<path d="M41.0052 36.5698V35.2095C39.7471 35.2095 39.1171 33.6889 40.0068 32.7992L39.0449 31.8373C38.1552 32.727 36.6346 32.097 36.6346 30.8389H35.2743C35.2743 32.097 33.7537 32.727 32.864 31.8373L31.9021 32.7992C32.7918 33.6889 32.1618 35.2095 30.9037 35.2095V36.5698C32.1618 36.5698 32.7918 38.0904 31.9021 38.9801L32.864 39.942C33.7537 39.0523 35.2743 39.6823 35.2743 40.9404H36.6346C36.6346 39.6823 38.1552 39.0523 39.0449 39.942L40.0068 38.9801C39.1171 38.0904 39.7471 36.5698 41.0052 36.5698ZM35.954 37.2907C35.1806 37.2907 34.5534 36.6636 34.5534 35.8901C34.5534 35.1167 35.1806 34.4895 35.954 34.4895C36.7274 34.4895 37.3546 35.1167 37.3546 35.8901C37.3546 36.6636 36.7274 37.2907 35.954 37.2907Z" fill="white"/>
</g>
<defs>
<clipPath id="clip0_1326_47539">
<rect width="48" height="48" fill="white"/>
</clipPath>
</defs>
</svg>