<?xml version="1.0" encoding="utf-8"?>
<svg xmlns="http://www.w3.org/2000/svg" width="24" height="24" viewBox="0 0 24 24" fill="none">
<path d="M22.4812 4.62902L19.8295 7.28067L18.7689 6.22001L21.4205 3.56836L22.4812 4.62902Z" fill="#502D3C"/>
<path fill-rule="evenodd" clip-rule="evenodd" d="M15.75 4.0818C15.8724 3.97487 15.9909 3.86434 16.1053 3.75028H17.25V17.2503H16.1053C15.9909 17.1362 15.8724 17.0257 15.75 16.9188C14.1846 15.5514 11.9781 14.7716 9.51999 14.713L11.5791 20.2501H6.8179L4.84779 14.6213C2.93627 14.2237 1.5 12.5297 1.5 10.5003C1.5 8.17562 3.38452 6.2911 5.70918 6.2911H9.22059C11.7986 6.2911 14.1213 5.50448 15.75 4.0818ZM6.46789 14.7095H7.9183L9.42092 18.7501H7.88212L6.46789 14.7095ZM15.75 5.96395C14.8489 6.55908 13.8343 7.01103 12.75 7.31656V13.684C13.8343 13.9895 14.8489 14.4415 15.75 15.0366V5.96395ZM9.22059 7.7911C9.90817 7.7911 10.5875 7.74034 11.25 7.63947V13.3611C10.5875 13.2602 9.90817 13.2095 9.22059 13.2095H5.70918C4.21294 13.2095 3 11.9965 3 10.5003C3 9.00404 4.21294 7.7911 5.70918 7.7911H9.22059Z" fill="#502D3C"/>
<path d="M18.75 11.2503H22.5V9.75028H18.75V11.2503Z" fill="#502D3C"/>
<path d="M18.7688 14.7807L21.4205 17.4323L22.4811 16.3717L19.8295 13.72L18.7688 14.7807Z" fill="#502D3C"/>
</svg>