<?xml version="1.0" encoding="utf-8"?>
<svg xmlns="http://www.w3.org/2000/svg" width="48" height="48" viewBox="0 0 48 48" fill="none">
<g clip-path="url(#clip0_1326_47471)">
<path d="M40.5 0H7.5C3.35786 0 0 3.35786 0 7.5V40.5C0 44.6421 3.35786 48 7.5 48H40.5C44.6421 48 48 44.6421 48 40.5V7.5C48 3.35786 44.6421 0 40.5 0Z" fill="#502D3C"/>
<path d="M40.1522 18.3745L24.0216 13.5352L7.89188 18.3745L24.0216 23.2186L40.1522 18.3745ZM13.1194 21.9145V31.9167C13.9594 31.33 14.9077 30.916 15.9091 30.699C16.9105 30.4819 17.945 30.466 18.9526 30.6523C19.9602 30.8385 20.9207 31.2231 21.7783 31.7838C22.636 32.3445 23.3736 33.07 23.9484 33.9183C25.0695 32.2619 26.7894 31.1049 28.7462 30.6908C30.703 30.2768 32.7441 30.6379 34.44 31.6983C34.605 31.7883 34.7666 31.8842 34.9247 31.9861V21.9014L24 25.1817L13.1194 21.9145Z" fill="#FDB71C"/>
<path d="M24.0216 16.4883C22.7316 16.4883 21.6684 17.1305 21.5184 17.9583L16.0556 19.5989C15.8627 19.6569 15.6937 19.7755 15.5735 19.9371C15.4532 20.0987 15.3883 20.2947 15.3881 20.4961V32.7698C15.0478 32.9427 14.7619 33.2064 14.5622 33.5317C14.3625 33.857 14.2567 34.2312 14.2566 34.613V37.1592H18.3937V34.613C18.3943 34.2312 18.2889 33.8568 18.0893 33.5314C17.8897 33.206 17.6037 32.9423 17.2631 32.7698V21.1936L22.6725 19.5698C23.1007 19.7443 23.5592 19.8323 24.0216 19.8286C25.4147 19.8286 26.5434 19.0786 26.5434 18.1589C26.5434 17.2392 25.4147 16.4883 24.0216 16.4883Z" fill="white"/>
</g>
<defs>
<clipPath id="clip0_1326_47471">
<rect width="48" height="48" fill="white"/>
</clipPath>
</defs>
</svg>