<?xml version="1.0" encoding="utf-8"?>
<svg xmlns="http://www.w3.org/2000/svg" width="48" height="48" viewBox="0 0 48 48" fill="none">
<g clip-path="url(#clip0_1326_47327)">
<path d="M40.5 0H7.5C3.35786 0 0 3.35786 0 7.5V40.5C0 44.6421 3.35786 48 7.5 48H40.5C44.6421 48 48 44.6421 48 40.5V7.5C48 3.35786 44.6421 0 40.5 0Z" fill="#502D3C"/>
<path d="M32.5022 23.0616H26.2106C25.9667 22.4887 25.5104 22.0324 24.9375 21.7885V13.665H23.0625V21.7885C22.7007 21.942 22.3821 22.1821 22.1347 22.4876C21.8873 22.793 21.7187 23.1546 21.6437 23.5404C21.5687 23.9263 21.5895 24.3246 21.7045 24.7005C21.8194 25.0764 22.0248 25.4184 22.3028 25.6963C22.5807 25.9743 22.9227 26.1797 23.2986 26.2946C23.6745 26.4096 24.0728 26.4304 24.4587 26.3554C24.8445 26.2804 25.2061 26.1118 25.5115 25.8644C25.817 25.617 26.0571 25.2984 26.2106 24.9366H32.5022V23.0616Z" fill="white"/>
<path d="M9.67031 25.8275C9.99062 28.3839 10.9918 30.8074 12.5691 32.8447L13.9078 31.5059C12.667 29.8372 11.8614 27.8856 11.5641 25.8275H9.67031ZM13.6716 16.82L12.3272 15.4756C10.8882 17.4461 9.97394 19.7502 9.67031 22.1712H11.5612C11.8393 20.2477 12.5618 18.4155 13.6716 16.82ZM31.1803 34.3287C29.5862 35.4429 27.7531 36.168 25.8281 36.4456V38.3375C28.2513 38.0361 30.5568 37.1188 32.5247 35.6731L31.1803 34.3287ZM15.1537 35.4303C17.1884 37.0139 19.6133 38.0181 22.1719 38.3365V36.4456C20.1114 36.1487 18.1584 35.3396 16.4916 34.0925L15.1537 35.4303Z" fill="white"/>
<path d="M34.2187 13.7808C31.6832 11.2459 28.2961 9.7436 24.7152 9.56568C21.1342 9.38775 17.6149 10.5469 14.8406 12.818L16.1737 14.1558C18.4585 12.3412 21.3029 11.3772 24.2202 11.4287C27.1374 11.4803 29.946 12.5442 32.1652 14.4384C34.3844 16.3326 35.8762 18.9393 36.3853 21.8122C36.8943 24.6852 36.3889 27.6457 34.9556 30.1871L33.075 28.3046V33.4214H38.1919L36.3244 31.5539C38.0168 28.7843 38.7292 25.5262 38.3474 22.303C37.9655 19.0797 36.5114 16.0784 34.2187 13.7808Z" fill="#FDB71C"/>
</g>
<defs>
<clipPath id="clip0_1326_47327">
<rect width="48" height="48" fill="white"/>
</clipPath>
</defs>
</svg>