<?xml version="1.0" encoding="utf-8"?>
<svg xmlns="http://www.w3.org/2000/svg" width="48" height="48" viewBox="0 0 48 48" fill="none">
<g clip-path="url(#clip0_1326_47459)">
<path d="M40.5 0H7.5C3.35786 0 0 3.35786 0 7.5V40.5C0 44.6421 3.35786 48 7.5 48H40.5C44.6421 48 48 44.6421 48 40.5V7.5C48 3.35786 44.6421 0 40.5 0Z" fill="#502D3C"/>
<path d="M33.2081 27.8965C34.6303 27.8982 35.9938 28.464 36.9994 29.4696C38.005 30.4752 38.5708 31.8387 38.5725 33.2609C38.5708 34.683 38.005 36.0465 36.9994 37.0521C35.9938 38.0578 34.6303 38.6235 33.2081 38.6252C31.7859 38.6235 30.4225 38.0578 29.4169 37.0521C28.4112 36.0465 27.8455 34.683 27.8438 33.2609C27.8455 31.8387 28.4112 30.4752 29.4169 29.4696C30.4225 28.464 31.7859 27.8982 33.2081 27.8965ZM33.2081 26.0215C32.2574 26.0215 31.3161 26.2087 30.4377 26.5725C29.5594 26.9364 28.7613 27.4696 28.0891 28.1418C27.4169 28.8141 26.8836 29.6121 26.5198 30.4905C26.156 31.3688 25.9688 32.3102 25.9688 33.2609C25.9688 34.2115 26.156 35.1529 26.5198 36.0312C26.8836 36.9096 27.4169 37.7076 28.0891 38.3799C28.7613 39.0521 29.5594 39.5854 30.4377 39.9492C31.3161 40.313 32.2574 40.5002 33.2081 40.5002C34.1588 40.5002 35.1002 40.313 35.9785 39.9492C36.8568 39.5854 37.6549 39.0521 38.3271 38.3799C38.9994 37.7076 39.5326 36.9096 39.8964 36.0312C40.2602 35.1529 40.4475 34.2115 40.4475 33.2609C40.4475 31.3409 39.6848 29.4995 38.3271 28.1418C36.9695 26.7842 35.1281 26.0215 33.2081 26.0215Z" fill="white"/>
<path d="M33.1612 35.5312C32.9126 35.5311 32.6742 35.4323 32.4984 35.2565L30.0122 32.7702L31.3378 31.4446L33.1612 33.2671L39.3365 27.0918L40.6622 28.4184L33.824 35.2565C33.6483 35.4323 33.4099 35.5311 33.1612 35.5312Z" fill="#FDB71C"/>
<path d="M14.5519 40.5002C18.5501 40.5002 21.7913 37.2591 21.7913 33.2609C21.7913 29.2627 18.5501 26.0215 14.5519 26.0215C10.5537 26.0215 7.3125 29.2627 7.3125 33.2609C7.3125 37.2591 10.5537 40.5002 14.5519 40.5002Z" fill="#FDB71C"/>
<path d="M12.1612 32.8512C12.824 32.8512 13.3612 32.3139 13.3612 31.6512C13.3612 30.9884 12.824 30.4512 12.1612 30.4512C11.4985 30.4512 10.9612 30.9884 10.9612 31.6512C10.9612 32.3139 11.4985 32.8512 12.1612 32.8512Z" fill="#502D3C"/>
<path d="M16.9425 32.8512C17.6052 32.8512 18.1425 32.3139 18.1425 31.6512C18.1425 30.9884 17.6052 30.4512 16.9425 30.4512C16.2798 30.4512 15.7425 30.9884 15.7425 31.6512C15.7425 32.3139 16.2798 32.8512 16.9425 32.8512Z" fill="#502D3C"/>
<path d="M17.7881 34.8506H11.3166V36.7256H17.7881V34.8506Z" fill="#502D3C"/>
<path d="M33.2081 21.9788C37.2063 21.9788 40.4475 18.7376 40.4475 14.7394C40.4475 10.7412 37.2063 7.5 33.2081 7.5C29.2099 7.5 25.9688 10.7412 25.9688 14.7394C25.9688 18.7376 29.2099 21.9788 33.2081 21.9788Z" fill="#FDB71C"/>
<path d="M30.8175 14.3297C31.4802 14.3297 32.0175 13.7924 32.0175 13.1297C32.0175 12.4669 31.4802 11.9297 30.8175 11.9297C30.1548 11.9297 29.6175 12.4669 29.6175 13.1297C29.6175 13.7924 30.1548 14.3297 30.8175 14.3297Z" fill="#502D3C"/>
<path d="M35.5987 14.3297C36.2615 14.3297 36.7987 13.7924 36.7987 13.1297C36.7987 12.4669 36.2615 11.9297 35.5987 11.9297C34.936 11.9297 34.3987 12.4669 34.3987 13.1297C34.3987 13.7924 34.936 14.3297 35.5987 14.3297Z" fill="#502D3C"/>
<path d="M36.5513 15.7969C36.337 16.5165 35.8956 17.1474 35.293 17.5952C34.6903 18.043 33.9589 18.2837 33.2081 18.2812C32.4575 18.2837 31.7262 18.0433 31.1234 17.5959C30.5207 17.1484 30.0789 16.518 29.8641 15.7988H27.9375C28.1681 17.0266 28.8216 18.1349 29.7845 18.931C30.7474 19.7271 31.9588 20.1606 33.2081 20.1562C34.4573 20.1604 35.6685 19.7268 36.6312 18.9307C37.5939 18.1347 38.2473 17.0265 38.4778 15.7988L36.5513 15.7969Z" fill="#502D3C"/>
<path d="M14.5519 21.9788C18.5501 21.9788 21.7913 18.7376 21.7913 14.7394C21.7913 10.7412 18.5501 7.5 14.5519 7.5C10.5537 7.5 7.3125 10.7412 7.3125 14.7394C7.3125 18.7376 10.5537 21.9788 14.5519 21.9788Z" fill="#FDB71C"/>
<path d="M12.1612 14.3297C12.824 14.3297 13.3612 13.7924 13.3612 13.1297C13.3612 12.4669 12.824 11.9297 12.1612 11.9297C11.4985 11.9297 10.9612 12.4669 10.9612 13.1297C10.9612 13.7924 11.4985 14.3297 12.1612 14.3297Z" fill="#502D3C"/>
<path d="M16.9425 14.3297C17.6052 14.3297 18.1425 13.7924 18.1425 13.1297C18.1425 12.4669 17.6052 11.9297 16.9425 11.9297C16.2798 11.9297 15.7425 12.4669 15.7425 13.1297C15.7425 13.7924 16.2798 14.3297 16.9425 14.3297Z" fill="#502D3C"/>
<path d="M9.2822 15.7969C9.51235 17.025 10.1656 18.1336 11.1283 18.93C12.091 19.7264 13.3024 20.1603 14.5519 20.1562C15.8012 20.1606 17.0126 19.7271 17.9755 18.931C18.9384 18.1349 19.5919 17.0266 19.8225 15.7988L9.2822 15.7969Z" fill="#502D3C"/>
</g>
<defs>
<clipPath id="clip0_1326_47459">
<rect width="48" height="48" fill="white"/>
</clipPath>
</defs>
</svg>