<?xml version="1.0" encoding="utf-8"?>
<svg xmlns="http://www.w3.org/2000/svg" width="48" height="48" viewBox="0 0 48 48" fill="none">
<path d="M40.5 0H7.5C3.35786 0 0 3.35786 0 7.5V40.5C0 44.6421 3.35786 48 7.5 48H40.5C44.6421 48 48 44.6421 48 40.5V7.5C48 3.35786 44.6421 0 40.5 0Z" fill="#502D3C"/>
<path d="M24 23.1376C25.3922 23.1376 26.5209 22.0088 26.5209 20.6166C26.5209 19.2245 25.3922 18.0957 24 18.0957C22.6078 18.0957 21.4791 19.2245 21.4791 20.6166C21.4791 22.0088 22.6078 23.1376 24 23.1376ZM24 24.4351C21.4453 24.4351 19.3659 26.5135 19.3659 29.0691H28.6341C28.6341 26.5145 26.5556 24.4351 24 24.4351Z" fill="#FDB71C"/>
<path d="M24.7097 13.2787C29.7619 13.6096 33.8728 17.4468 34.6238 22.3743L36.6394 23.6634L38.5978 22.4109C37.8225 15.2353 31.8563 9.59434 24.5419 9.32715L25.8891 11.4328L24.7097 13.2768V13.2787ZM23.3156 34.725C18.2494 34.4043 14.1253 30.5587 13.3763 25.619L11.3738 24.3384L9.40501 25.5975C10.1831 32.7609 16.1334 38.3934 23.4338 38.6728L22.1128 36.6075L23.3166 34.725H23.3156ZM36.6394 25.89L34.725 24.6656C34.4138 29.7459 30.5569 33.884 25.6031 34.6275L24.3375 36.6075L25.6097 38.5959C32.76 37.8131 38.3822 31.8759 38.6719 24.5906L36.6403 25.89H36.6394ZM9.32907 23.4196L11.3728 22.1128L13.2759 23.3296C13.5909 18.2428 17.4609 14.1037 22.425 13.3706L23.6634 11.4346L22.3678 9.40871C15.2259 10.2028 9.61407 16.1381 9.32907 23.4196Z" fill="white"/>
</svg>