<?xml version="1.0" encoding="utf-8"?>
<svg xmlns="http://www.w3.org/2000/svg" width="24" height="24" viewBox="0 0 24 24" fill="none">
<path d="M16.875 12.75C17.4963 12.75 18 12.2463 18 11.625C18 11.0037 17.4963 10.5 16.875 10.5C16.2537 10.5 15.75 11.0037 15.75 11.625C15.75 12.2463 16.2537 12.75 16.875 12.75Z" fill="#502D3C"/>
<path fill-rule="evenodd" clip-rule="evenodd" d="M5.45845 8.26864C4.86068 7.55319 4.5 6.63105 4.5 5.625C4.5 3.34683 6.34683 1.5 8.625 1.5C10.7786 1.5 12.5467 3.15031 12.7337 5.25526C13.4405 5.27801 14.1267 5.37417 14.782 5.53562L16.6715 4.47396C17.6714 3.91215 18.9062 4.63475 18.9062 5.78168V7.79377C19.4919 8.36999 19.9802 9.02833 20.3434 9.74999H21C21.8284 9.74999 22.5 10.4216 22.5 11.25V14.25C22.5 15.0784 21.8284 15.75 21 15.75H20.3434C19.8404 16.7495 19.0975 17.6274 18.1875 18.3347V21.75H13.8125V20.1516C13.3544 20.2164 12.8846 20.25 12.4062 20.25C11.9279 20.25 11.4581 20.2164 11 20.1516V21.75H6.625V18.3347C5.09468 17.1448 4.03505 15.4691 3.79951 13.5584C2.48054 13.2429 1.5 12.0563 1.5 10.6406V10.5H3V10.6406C3 11.2146 3.32239 11.7133 3.79597 11.9655C3.96029 10.574 4.55719 9.31266 5.45845 8.26864ZM6 5.625C6 4.17525 7.17525 3 8.625 3C9.9713 3 11.0809 4.01352 11.2324 5.31918C9.45626 5.52982 7.82736 6.2115 6.54609 7.2281C6.20322 6.78432 6 6.22854 6 5.625ZM17.4062 5.78168L14.9807 7.14451L14.6813 7.06019C13.968 6.85934 13.2033 6.74999 12.4062 6.74999C8.33836 6.74999 5.25 9.54313 5.25 12.75C5.25 14.5639 6.21696 16.2229 7.80719 17.3442L8.125 17.5682V20.25H9.5V18.2932L10.426 18.5169C11.0538 18.6684 11.718 18.75 12.4062 18.75C13.0945 18.75 13.7587 18.6684 14.3865 18.5169L15.3125 18.2932V20.25H16.6875V17.5682L17.0053 17.3442C17.9965 16.6453 18.7467 15.7348 19.1697 14.7131L19.3614 14.25H21V11.25H19.3614L19.1697 10.7869C18.8445 10.0015 18.3263 9.28214 17.6532 8.67338L17.4062 8.45006V5.78168Z" fill="#502D3C"/>
</svg>