<?xml version="1.0" encoding="utf-8"?>
<svg xmlns="http://www.w3.org/2000/svg" width="48" height="48" viewBox="0 0 48 48" fill="none">
<rect width="48" height="48" rx="8" fill="white"/>
<path d="M22.625 28.3141V23.7594C22.625 23.6906 22.6508 23.6305 22.698 23.5832L23.1363 23.1449C23.2352 23.0461 23.2352 22.8914 23.1363 22.7926L22.698 22.3543C22.6508 22.307 22.625 22.2426 22.625 22.1781V19.6859C22.625 19.4109 22.8484 19.1875 23.1234 19.1875H24.8723C25.1473 19.1875 25.3707 19.4109 25.3707 19.6859V24.2406C25.3707 24.3094 25.3449 24.3695 25.2977 24.4168L24.8594 24.8551C24.7605 24.9539 24.7605 25.1129 24.8594 25.2074L25.2977 25.6457C25.3449 25.693 25.3707 25.7574 25.3707 25.8219V28.3141C25.3707 28.5891 25.1473 28.8125 24.8723 28.8125H23.1234C22.8484 28.8125 22.625 28.5891 22.625 28.3141M17.4688 24C17.4688 27.6094 20.3949 30.5312 24 30.5312C27.6051 30.5312 30.5312 27.6094 30.5312 24C30.5312 20.3949 27.6051 17.4688 24 17.4688C20.3949 17.4688 17.4688 20.3949 17.4688 24ZM15.2344 24C15.2344 19.1574 19.1574 15.2344 24 15.2344C28.8426 15.2344 32.7656 19.1574 32.7656 24C32.7656 28.8426 28.8426 32.7656 24 32.7656C19.1574 32.7656 15.2344 28.8426 15.2344 24ZM13 24C13 30.0758 17.9242 35 24 35C30.0758 35 35 30.0758 35 24C35 17.9242 30.0758 13 24 13C17.9242 13 13 17.9242 13 24Z" fill="#1A8CFF"/>
</svg>