<?xml version="1.0" encoding="utf-8"?>
<svg xmlns="http://www.w3.org/2000/svg" width="24" height="24" viewBox="0 0 24 24" fill="none">
<path d="M9.75 9.75C9.75 8.4729 10.7506 7.5 12 7.5C13.2254 7.5 14.25 8.5233 14.25 9.82455C14.25 10.6958 13.7869 11.3847 13.101 11.7393C12.3148 12.1458 11.25 12.9719 11.25 14.25V15H12.75V14.25C12.75 13.8712 13.1045 13.4262 13.79 13.0718C14.9574 12.4682 15.75 11.2751 15.75 9.82455C15.75 7.72972 14.0883 6 12 6C9.9357 6 8.25 7.63102 8.25 9.75H9.75Z" fill="#502D3C"/>
<path d="M11.25 18V16.5H12.75V18H11.25Z" fill="#502D3C"/>
<path fill-rule="evenodd" clip-rule="evenodd" d="M12 1.5C6.20101 1.5 1.5 6.20101 1.5 12C1.5 17.799 6.20101 22.5 12 22.5C17.799 22.5 22.5 17.799 22.5 12C22.5 6.20101 17.799 1.5 12 1.5ZM3 12C3 7.02944 7.02944 3 12 3C16.9705 3 21 7.02944 21 12C21 16.9705 16.9705 21 12 21C7.02944 21 3 16.9705 3 12Z" fill="#502D3C"/>
</svg>