<?xml version="1.0" encoding="utf-8"?>
<svg xmlns="http://www.w3.org/2000/svg" width="48" height="48" viewBox="0 0 48 48" fill="none">
<g clip-path="url(#clip0_1326_47154)">
<path d="M40.5 0H7.5C3.35786 0 0 3.35786 0 7.5V40.5C0 44.6421 3.35786 48 7.5 48H40.5C44.6421 48 48 44.6421 48 40.5V7.5C48 3.35786 44.6421 0 40.5 0Z" fill="#502D3C"/>
<path d="M28.9171 10.4763C23.609 7.41163 16.7972 9.23695 13.7334 14.5451C10.6687 19.8532 12.494 26.6651 17.8021 29.7298C19.5487 30.7376 21.4565 31.2166 23.3409 31.2166C27.1856 31.2166 30.93 29.2226 32.9859 25.661C36.0506 20.3529 34.2253 13.541 28.9171 10.4763ZM31.7896 23.8873L27.6609 21.5032C29.0793 18.8585 30.0712 16.0544 30.2006 13.8898C32.624 16.5616 33.315 20.4963 31.7896 23.8863V23.8873ZM18.7387 28.1051C18.5043 27.9701 18.1603 27.2041 18.5353 25.2757C18.8597 23.6079 19.6134 21.6335 20.6812 19.6394L25.0987 22.1894C23.9053 24.1104 22.5721 25.751 21.2906 26.8666C19.8075 28.1557 18.9731 28.241 18.7387 28.1051ZM21.6187 18.0157C22.8121 16.0948 24.1443 14.4541 25.4268 13.3385C26.5996 12.3194 27.3665 12.0532 27.7518 12.0532C27.854 12.0532 27.929 12.0719 27.9787 12.1001C28.2131 12.2351 28.5571 13.001 28.1821 14.9294C27.8578 16.5973 27.104 18.5716 26.0362 20.5657L21.6187 18.0157ZM25.3181 11.0726C23.5087 12.266 21.5756 14.5273 19.995 17.0782L15.8662 14.6941C18.0403 11.6782 21.7921 10.3104 25.3181 11.0716V11.0726ZM14.9287 16.3188L19.0575 18.7029C17.639 21.3476 16.6471 24.1516 16.5178 26.3163C14.0943 23.6444 13.4034 19.7098 14.9287 16.3188ZM21.3984 29.1344C23.2087 27.941 25.1418 25.6807 26.7234 23.1288L30.8521 25.5129C28.6781 28.5298 24.9253 29.8976 21.3984 29.1344Z" fill="white"/>
<path d="M30.9065 7.03023L29.969 8.65398C36.2821 12.299 38.4524 20.3999 34.8084 26.713C33.0431 29.7712 30.1921 31.9584 26.7815 32.8724C23.3709 33.7865 19.8084 33.3177 16.7502 31.5515L15.8127 33.1752C17.8677 34.3621 20.1215 35.0343 22.4231 35.1749V38.5302H15.8231V40.4052H30.899V38.5302H24.299V35.1721C25.2918 35.1084 26.2856 34.9462 27.2681 34.6827C31.1624 33.6393 34.4174 31.1418 36.434 27.6496C40.5956 20.4412 38.1168 11.1909 30.9084 7.0293L30.9065 7.03023Z" fill="#FDB71C"/>
</g>
<defs>
<clipPath id="clip0_1326_47154">
<rect width="48" height="48" fill="white"/>
</clipPath>
</defs>
</svg>