<?xml version="1.0" encoding="utf-8"?>
<svg xmlns="http://www.w3.org/2000/svg" width="48" height="48" viewBox="0 0 48 48" fill="none">
<path d="M40.5 0H7.5C3.35786 0 0 3.35786 0 7.5V40.5C0 44.6421 3.35786 48 7.5 48H40.5C44.6421 48 48 44.6421 48 40.5V7.5C48 3.35786 44.6421 0 40.5 0Z" fill="#552D3C"/>
<path d="M23.9999 41.1731C28.6521 41.1731 32.4234 37.4018 32.4234 32.7497C32.4234 28.0976 28.6521 24.3263 23.9999 24.3263C19.3478 24.3263 15.5765 28.0976 15.5765 32.7497C15.5765 37.4018 19.3478 41.1731 23.9999 41.1731Z" fill="#FDB71C"/>
<path d="M26.7272 35.3259C26.3804 36.3468 25.4129 37.0837 24.2766 37.0837C23.1404 37.0837 22.1766 36.3496 21.8279 35.3315H24.885V33.5897H21.6882V31.9087H24.885V30.1668H21.8279C22.1766 29.1487 23.1422 28.4146 24.2766 28.4146C25.411 28.4146 26.3766 29.1487 26.7254 30.1659H28.5254C28.1344 28.1775 26.3785 26.6728 24.2775 26.6728C22.1766 26.6728 20.4197 28.1784 20.0297 30.1668H18.2213V31.9087H19.9472V33.5897H18.2213V35.3315H20.0297C20.4207 37.32 22.1766 38.8256 24.2775 38.8256C26.3785 38.8256 28.1382 37.3171 28.5272 35.3259H26.7282H26.7272Z" fill="white"/>
<path d="M33.3778 24.6113C38.03 24.6113 41.8013 20.84 41.8013 16.1878C41.8013 11.5357 38.03 7.76439 33.3778 7.76439C28.7257 7.76439 24.9544 11.5357 24.9544 16.1878C24.9544 20.84 28.7257 24.6113 33.3778 24.6113Z" fill="#FDB71C"/>
<path d="M38.1208 11.8228L36.8936 10.5853L33.378 14.0709L29.8623 10.5853L28.6351 11.8228L32.117 15.2737H29.6533V17.0166H32.507V18.6675H29.6533V20.4094H32.507V22.3875H34.2489V20.4094H37.1026V18.6675H34.2489V17.0166H37.1026V15.2737H34.6389L38.1208 11.8228Z" fill="white"/>
<path d="M14.6223 24.6113C19.2744 24.6113 23.0457 20.84 23.0457 16.1878C23.0457 11.5357 19.2744 7.7644 14.6223 7.7644C9.97012 7.7644 6.19882 11.5357 6.19882 16.1878C6.19882 20.84 9.97012 24.6113 14.6223 24.6113Z" fill="#FDB71C"/>
<path d="M15.4596 15.3168H13.7852C13.1449 15.3168 12.6246 14.7965 12.6246 14.1562C12.6246 13.5159 13.1449 12.9956 13.7852 12.9956H17.4902V11.2537H15.4924V9.82399H13.7505V11.2546C12.1661 11.2734 10.8827 12.5671 10.8827 14.1562C10.8827 15.7452 12.1849 17.0587 13.7852 17.0587H15.4596C16.0999 17.0587 16.6202 17.579 16.6202 18.2193C16.6202 18.8596 16.0999 19.3799 15.4596 19.3799H11.7517V21.1218H13.7505V22.5515H15.4924V21.1209C17.0777 21.1031 18.3621 19.8084 18.3621 18.2193C18.3621 16.6302 17.0599 15.3168 15.4596 15.3168Z" fill="white"/>
</svg>