<?xml version="1.0" encoding="utf-8"?>
<svg xmlns="http://www.w3.org/2000/svg" width="48" height="48" viewBox="0 0 48 48" fill="none">
<g clip-path="url(#clip0_2904_4256)">
<path d="M40.5 0H7.5C3.35786 0 0 3.35786 0 7.5V40.5C0 44.6421 3.35786 48 7.5 48H40.5C44.6421 48 48 44.6421 48 40.5V7.5C48 3.35786 44.6421 0 40.5 0Z" fill="#502D3C"/>
<path d="M13.3211 19.2877C13.3211 16.9589 12.1473 15.0342 9.95357 13.418H15.0536C15.9514 14.1104 16.6784 14.9996 17.1787 16.0171C17.6789 17.0346 17.9391 18.1533 17.9391 19.2872C17.9391 20.421 17.6789 21.5398 17.1787 22.5573C16.6784 23.5748 15.9514 24.464 15.0536 25.1564C16.7083 25.8492 17.6514 27.5423 17.6514 29.9677V34.5858H13.0314V29.9677C13.0314 27.6586 11.9345 26.0423 9.95264 25.1564C12.1464 23.5402 13.3201 21.6164 13.3201 19.2877H13.3211ZM23.327 19.2877C23.327 16.9589 22.1533 15.0342 19.9595 13.418H25.0595C25.9583 14.1097 26.6863 14.9987 27.1872 16.0163C27.6881 17.0339 27.9486 18.153 27.9486 19.2872C27.9486 20.4214 27.6881 21.5405 27.1872 22.5581C26.6863 23.5757 25.9583 24.4646 25.0595 25.1564C26.7189 25.8492 27.6564 27.5423 27.6564 29.9677V34.5858H23.0392V29.9677C23.0392 27.6586 21.9423 26.0423 19.9604 25.1564C22.1542 23.5402 23.3279 21.6164 23.3279 19.2877H23.327ZM33.3348 19.2877C33.3348 16.9589 32.1611 15.0342 29.9673 13.418H35.0626C35.9615 14.1097 36.6894 14.9987 37.1903 16.0163C37.6912 17.0339 37.9517 18.153 37.9517 19.2872C37.9517 20.4214 37.6912 21.5405 37.1903 22.5581C36.6894 23.5757 35.9615 24.4646 35.0626 25.1564C36.7173 25.8492 37.6604 27.5423 37.6604 29.9677V34.5858H33.0461V29.9677C33.0461 27.6586 31.9492 26.0423 29.9673 25.1564C32.1611 23.5402 33.3348 21.6164 33.3348 19.2877Z" fill="#FDB71C"/>
</g>
<defs>
<clipPath id="clip0_2904_4256">
<rect width="48" height="48" fill="white"/>
</clipPath>
</defs>
</svg>